REM MD5 b3e114084039a0a6eef0607b52ab54d0
FILE "Simple 1500 Series Vol. 1 - The Mahjong (Japan).bin" BINARY
  TRACK 01 MODE2/2352
    INDEX 01 00:00:00
  TRACK 02 AUDIO
    INDEX 00 00:28:27
    INDEX 01 00:30:27
  TRACK 03 AUDIO
    INDEX 00 02:33:20
    INDEX 01 02:35:20
  TRACK 04 AUDIO
    INDEX 00 04:51:33
    INDEX 01 04:53:33
  TRACK 05 AUDIO
    INDEX 00 07:45:50
    INDEX 01 07:47:50
  TRACK 06 AUDIO
    INDEX 00 10:29:64
    INDEX 01 10:31:64
REM LEADOUT 10:51:64
